<mxfile host="app.diagrams.net" modified="2024-04-14T09:38:32.097Z" agent="Mozilla/5.0 (Windows NT 10.0; Win64; x64) AppleWebKit/537.36 (KHTML, like Gecko) Chrome/121.0.0.0 Safari/537.36" etag="Znh2vDNqZjicG0A3rnqg" version="24.2.5" type="device">
  <diagram name="Strona-1" id="GsQTxjTEILLFrlVCHDj-">
    <mxGraphModel dx="1050" dy="530" grid="1" gridSize="10" guides="1" tooltips="1" connect="1" arrows="1" fold="1" page="1" pageScale="1" pageWidth="827" pageHeight="1169" math="0" shadow="0">
      <root>
        <mxCell id="0" />
        <mxCell id="1" parent="0" />
        <mxCell id="7ImEmX_qhXpjcWAlvI-A-7" value="" style="whiteSpace=wrap;html=1;aspect=fixed;" parent="1" vertex="1">
          <mxGeometry x="234" y="60" width="380" height="380" as="geometry" />
        </mxCell>
        <mxCell id="7ImEmX_qhXpjcWAlvI-A-11" value="" style="endArrow=none;html=1;rounded=0;exitX=1.001;exitY=0.12;exitDx=0;exitDy=0;exitPerimeter=0;entryX=0.001;entryY=0.124;entryDx=0;entryDy=0;entryPerimeter=0;" parent="1" source="7ImEmX_qhXpjcWAlvI-A-7" target="7ImEmX_qhXpjcWAlvI-A-7" edge="1">
          <mxGeometry width="50" height="50" relative="1" as="geometry">
            <mxPoint x="400" y="230" as="sourcePoint" />
            <mxPoint x="450" y="180" as="targetPoint" />
          </mxGeometry>
        </mxCell>
        <mxCell id="7ImEmX_qhXpjcWAlvI-A-12" value="Logo" style="rounded=0;whiteSpace=wrap;html=1;" parent="1" vertex="1">
          <mxGeometry x="259" y="70" width="330" height="30" as="geometry" />
        </mxCell>
        <mxCell id="7ImEmX_qhXpjcWAlvI-A-13" value="Nazwa użytkownika&lt;span style=&quot;white-space: pre;&quot;&gt;&#x9;&lt;/span&gt;" style="rounded=0;whiteSpace=wrap;html=1;" parent="1" vertex="1">
          <mxGeometry x="334" y="190" width="180" height="40" as="geometry" />
        </mxCell>
        <mxCell id="7ImEmX_qhXpjcWAlvI-A-14" value="e-mail" style="rounded=0;whiteSpace=wrap;html=1;" parent="1" vertex="1">
          <mxGeometry x="334" y="250" width="180" height="40" as="geometry" />
        </mxCell>
        <mxCell id="7ImEmX_qhXpjcWAlvI-A-15" value="hasło" style="rounded=0;whiteSpace=wrap;html=1;" parent="1" vertex="1">
          <mxGeometry x="334" y="310" width="180" height="40" as="geometry" />
        </mxCell>
        <mxCell id="7ImEmX_qhXpjcWAlvI-A-18" value="Dokończ rejestracje" style="rounded=0;whiteSpace=wrap;html=1;" parent="1" vertex="1">
          <mxGeometry x="391" y="370" width="66" height="30" as="geometry" />
        </mxCell>
        <mxCell id="7ImEmX_qhXpjcWAlvI-A-21" value="!" style="ellipse;whiteSpace=wrap;html=1;aspect=fixed;" parent="1" vertex="1">
          <mxGeometry x="530" y="320" width="20" height="20" as="geometry" />
        </mxCell>
        <mxCell id="uT9dQJq7PeGpHqUDQpav-1" value="Imię Nazwisko" style="rounded=0;whiteSpace=wrap;html=1;" vertex="1" parent="1">
          <mxGeometry x="334" y="130" width="180" height="40" as="geometry" />
        </mxCell>
      </root>
    </mxGraphModel>
  </diagram>
</mxfile>
